<?xml version="1.0" encoding="UTF-8" standalone="no"?>
<!-- Created with Inkscape (http://www.inkscape.org/) -->

<svg
   width="132.29572mm"
   height="21.489456mm"
   viewBox="0 0 132.29572 21.489456"
   version="1.1"
   id="svg508"
   xmlns:inkscape="http://www.inkscape.org/namespaces/inkscape"
   xmlns:sodipodi="http://sodipodi.sourceforge.net/DTD/sodipodi-0.dtd"
   xmlns="http://www.w3.org/2000/svg"
   xmlns:svg="http://www.w3.org/2000/svg">
  <sodipodi:namedview
     id="namedview510"
     pagecolor="#ffffff"
     bordercolor="#666666"
     borderopacity="1.0"
     inkscape:showpageshadow="2"
     inkscape:pageopacity="0.0"
     inkscape:pagecheckerboard="true"
     inkscape:deskcolor="#d1d1d1"
     inkscape:document-units="mm"
     showgrid="false" />
  <defs
     id="defs505" />
  <g
     inkscape:label="Capa 1"
     inkscape:groupmode="layer"
     id="layer1"
     transform="translate(-38.923474,-69.812887)">
    <g
       id="g1048">
      <g
         id="g49"
         transform="matrix(0.26458333,0,0,0.26458333,38.922249,69.81289)"
         style="fill:#ffffff">
        <g
           id="g45"
           style="fill:#ffffff">
          <g
             id="g35"
             style="fill:#ffffff">
            <rect
               class="cls-1"
               x="27.75"
               width="3.6300001"
               height="7.3899999"
               rx="0.34"
               ry="0.34"
               id="rect15"
               style="fill:#ffffff"
               y="0" />
            <rect
               class="cls-1"
               x="33.279999"
               y="3.49"
               width="5.5599999"
               height="3.6300001"
               rx="0.34"
               ry="0.34"
               transform="rotate(-76.88,36.06121,5.3040838)"
               id="rect17"
               style="fill:#ffffff" />
            <rect
               class="cls-1"
               x="39.810001"
               y="6.5500002"
               width="3.6300001"
               height="3.6300001"
               rx="0.34"
               ry="0.34"
               transform="rotate(-64.3,41.622987,8.3597746)"
               id="rect19"
               style="fill:#ffffff" />
            <rect
               class="cls-1"
               x="21.290001"
               y="2.52"
               width="3.6300001"
               height="5.5599999"
               rx="0.34"
               ry="0.34"
               transform="rotate(-13.13,23.074038,5.2967701)"
               id="rect21"
               style="fill:#ffffff" />
            <rect
               class="cls-1"
               x="15.72"
               y="6.5500002"
               width="3.6300001"
               height="3.6300001"
               rx="0.34"
               ry="0.34"
               transform="rotate(-25.69,17.540179,8.359364)"
               id="rect23"
               style="fill:#ffffff" />
            <path
               class="cls-1"
               d="m 29.57,22.09 c -8.37,0 -14.93,10.56 -14.93,24.04 0,13.48 6.56,24.05 14.93,24.05 8.37,0 14.93,-10.56 14.93,-24.05 0,-13.49 -6.56,-24.04 -14.93,-24.04 z m 0,3.62 c 5.26,0 9.82,6.89 11,15.85 L 23.16,30.03 c -0.17,-0.11 -0.21,-0.34 -0.09,-0.5 1.85,-2.4 4.1,-3.82 6.49,-3.82 z m -8.22,7.47 16.91,11.2 H 18.68 c -0.2,0 -0.36,-0.17 -0.35,-0.37 0.24,-3.99 1.15,-7.68 2.51,-10.69 0.09,-0.19 0.33,-0.26 0.51,-0.14 z m 8.22,33.37 C 23.86,66.55 18.98,58.43 18.34,48.37 18.33,48.17 18.49,48 18.69,48 h 21.76 c 0.2,0 0.36,0.17 0.35,0.37 -0.64,10.06 -5.52,18.18 -11.23,18.18 z"
               id="path25"
               style="fill:#ffffff" />
            <path
               class="cls-1"
               d="m 52.26,39.32 c -3.21,0 -5.81,-2.61 -5.81,-5.81 0,-0.28 0,-0.65 0.1,-1.04 l 2.2,-9.98 c 0,0 0,0 0,0 0,0 0.05,-0.23 0.05,-0.49 0,-1.21 -0.98,-2.19 -2.19,-2.19 -0.24,0 -0.46,0.04 -0.68,0.11 -0.16,0.05 -0.33,-0.02 -0.41,-0.17 l -1.29,-2.67 c -0.09,-0.18 0,-0.39 0.18,-0.46 0.7,-0.29 1.44,-0.43 2.2,-0.43 3.21,0 5.81,2.61 5.81,5.81 0,0.66 -0.12,1.2 -0.17,1.4 l -2.17,9.89 c 0,0 0,0 0,0 0,0.02 0,0.05 0,0.08 -0.02,1.26 1,2.36 2.26,2.32 0.18,0 0.36,-0.03 0.54,-0.08 0.16,-0.05 0.34,0.03 0.41,0.19 l 1.2,2.69 c 0.08,0.19 -0.01,0.4 -0.2,0.47 -0.64,0.24 -1.32,0.36 -2.02,0.36 z m -2.18,-6.14 z"
               id="path27"
               style="fill:#ffffff" />
            <path
               class="cls-1"
               d="M 7.02,39.33 C 6.31,39.33 5.63,39.21 4.97,38.96 4.79,38.89 4.71,38.68 4.79,38.51 L 6,35.81 c 0.07,-0.16 0.24,-0.24 0.41,-0.19 0.17,0.05 0.36,0.08 0.54,0.09 1.26,0.04 2.28,-1.06 2.26,-2.32 0,-0.03 0,-0.06 0,-0.08 v -0.02 c 0,0 -2.17,-9.88 -2.17,-9.88 -0.05,-0.2 -0.17,-0.74 -0.17,-1.4 0,-3.21 2.61,-5.81 5.81,-5.81 0.76,0 1.5,0.14 2.2,0.43 0.18,0.08 0.27,0.29 0.18,0.46 l -1.29,2.67 c -0.07,0.15 -0.25,0.22 -0.41,0.17 -0.22,-0.07 -0.45,-0.11 -0.68,-0.11 -1.21,0 -2.19,0.98 -2.19,2.19 0,0.27 0.06,0.51 0.06,0.51 l 0.02,0.08 2.17,9.89 c 0.1,0.38 0.1,0.76 0.1,1.04 0,3.21 -2.61,5.81 -5.81,5.81 z M 9.2,33.2"
               id="path29"
               style="fill:#ffffff" />
            <path
               class="cls-1"
               d="m 40.86,14.38 c 0.08,-0.17 0.02,-0.37 -0.14,-0.45 -2.44,-1.3 -6.29,-2.81 -11.08,-2.81 -0.09,0 -0.18,0 -0.27,0 -4.57,0.05 -8.25,1.43 -10.8,2.8 -0.16,0.09 -0.22,0.29 -0.14,0.45 l 1.28,2.65 c 0.09,0.18 0.3,0.25 0.48,0.15 2.16,-1.18 5.3,-2.38 9.23,-2.43 0.08,0 0.15,0 0.23,0 4.12,0 7.43,1.32 9.48,2.44 0.17,0.09 0.39,0.02 0.47,-0.16 l 1.27,-2.64 z"
               id="path31"
               style="fill:#ffffff" />
            <path
               class="cls-1"
               d="M 59.15,57.03 C 59.07,56.48 58.79,55.01 58,53.34 c -0.7,-1.49 -1.41,-2.3 -1.93,-2.89 -0.44,-0.5 -0.63,-0.72 -0.78,-1.24 -0.24,-0.86 -0.21,-2.25 0.64,-3.31 0.4,-0.5 0.89,-0.81 1.34,-1.01 0.18,-0.08 0.26,-0.29 0.18,-0.46 l -1.28,-2.65 c -0.08,-0.17 -0.28,-0.24 -0.45,-0.16 -0.88,0.4 -1.82,1.02 -2.62,2.02 -1.7,2.13 -1.79,4.77 -1.3,6.54 0.36,1.32 0.99,2.04 1.55,2.67 0.46,0.52 0.89,1.01 1.37,2.04 0.6,1.27 0.8,2.38 0.84,2.68 0.44,2.95 -0.81,5.32 -1.07,5.77 -1.16,2.02 -2.83,3 -3.72,3.53 -1.1,0.65 -1.85,0.85 -2.79,1.09 -0.88,0.23 -1.88,0.49 -3.24,1.12 -2.06,0.95 -3.99,2.32 -5.72,4.05 l -0.1,0.11 c -1.08,1.27 -2.37,2.29 -3.85,3.03 -0.93,0.47 -2.88,1.27 -5.43,1.32 -2.55,-0.05 -4.5,-0.85 -5.43,-1.32 -1.48,-0.74 -2.77,-1.76 -3.85,-3.03 l -0.1,-0.11 C 18.53,71.4 16.61,70.03 14.54,69.08 13.17,68.45 12.18,68.19 11.3,67.96 10.36,67.71 9.62,67.52 8.51,66.87 7.62,66.34 5.95,65.36 4.79,63.34 4.53,62.9 3.28,60.53 3.72,57.57 3.77,57.26 3.96,56.16 4.56,54.88 5.04,53.85 5.47,53.36 5.93,52.84 6.49,52.21 7.11,51.49 7.48,50.17 7.97,48.4 7.88,45.76 6.18,43.63 5.42,42.68 4.52,42.07 3.68,41.67 3.51,41.59 3.3,41.66 3.22,41.83 l -1.27,2.65 c -0.08,0.17 0,0.38 0.17,0.46 0.42,0.2 0.87,0.5 1.24,0.96 0.85,1.06 0.87,2.45 0.64,3.31 -0.14,0.52 -0.34,0.74 -0.78,1.24 -0.52,0.59 -1.23,1.4 -1.93,2.89 -0.78,1.67 -1.06,3.14 -1.15,3.69 -0.61,4.04 1.01,7.23 1.52,8.12 1.64,2.84 4,4.24 5.01,4.84 1.54,0.91 2.65,1.2 3.72,1.48 0.8,0.21 1.57,0.41 2.64,0.91 1.65,0.76 3.2,1.86 4.62,3.26 0,0 0.01,0.01 0.02,0.02 1.38,1.61 3.04,2.9 4.92,3.85 1.21,0.61 3.74,1.65 7.03,1.71 h 0.03 c 0,0 0.03,0 0.03,0 3.29,-0.06 5.82,-1.09 7.03,-1.71 1.88,-0.95 3.54,-2.25 4.92,-3.85 0,0 0.01,-0.01 0.02,-0.02 1.41,-1.4 2.96,-2.5 4.62,-3.26 1.07,-0.5 1.84,-0.7 2.64,-0.91 1.07,-0.28 2.17,-0.57 3.72,-1.48 1.01,-0.6 3.37,-2 5.01,-4.84 0.51,-0.88 2.12,-4.08 1.52,-8.12 z"
               id="path33"
               style="fill:#ffffff" />
          </g>
          <g
             id="g43"
             style="fill:#ffffff">
            <path
               class="cls-1"
               d="m 101.59,47.62 v 3.82 c -0.94,0.4 -2.38,0.72 -4.13,0.72 -3.01,0 -4.89,-1.62 -5.07,-4.8 -0.36,3.05 -2.47,4.8 -6.11,4.8 -4.13,0 -6.73,-2.16 -6.73,-6.38 V 34.69 c 0,-1.75 -0.36,-3.05 -1.12,-4.22 l 7.36,-1.35 v 15.4 c 0,2.02 1.08,3.23 2.96,3.23 1.53,0 2.65,-0.27 3.64,-0.72 v -0.18 c 0,-1.44 0.09,-3.05 0.09,-4.62 v -7.5 c 0,-1.8 -0.45,-3.19 -1.17,-4.27 l 7.63,-1.35 c -0.04,3.14 -0.27,7.59 -0.31,11 -0.05,2.34 -0.09,4.27 -0.09,5.84 0,1.17 0.76,1.8 1.75,1.8 0.45,0 0.94,-0.04 1.3,-0.13 z"
               id="path37"
               style="fill:#ffffff" />
            <path
               class="cls-1"
               d="M 107.7,47.98 V 35.23 c 0,-1.8 -0.13,-3.23 -0.49,-4.94 l 6.69,-1.17 v 18.86 c 0,1.53 0.13,2.69 0.36,3.82 h -7 c 0.31,-1.12 0.45,-2.29 0.45,-3.82 z m 13.06,0 V 37.34 c 0,-2.07 -1.21,-2.92 -3.19,-2.92 -1.44,0 -2.47,0.09 -3.68,0.36 0.67,-3.82 3.01,-5.7 6.82,-5.7 3.81,0 6.2,2.51 6.2,6.64 v 12.26 c 0,1.53 0.18,2.69 0.49,3.82 h -6.96 c 0.22,-1.12 0.31,-2.29 0.31,-3.82 z"
               id="path39"
               style="fill:#ffffff" />
            <path
               class="cls-1"
               d="m 133.24,40.7 c 0,-7.05 4.62,-11.63 10.46,-11.63 2.74,0 5.03,0.45 6.64,1.08 v 5.43 c -1.66,-0.58 -3.46,-1.03 -5.57,-1.03 -3.77,0 -5.66,2.6 -5.66,6.6 0,4.27 2.51,6.56 6.2,6.56 1.8,0 3.5,-0.4 4.94,-0.85 v 4.4 c -1.84,0.58 -3.91,0.9 -6.33,0.9 -6.29,0 -10.69,-3.77 -10.69,-11.45 z"
               id="path41"
               style="fill:#ffffff" />
          </g>
        </g>
        <path
           class="cls-1"
           d="m 177.01,57.71 h -4.57 c 0.28,-5.53 0.45,-11.31 0.46,-17.33 0.02,-6.02 -0.12,-11.8 -0.37,-17.33 h 4.34 c -0.3,5.47 -0.47,11.24 -0.44,17.31 0.02,6.08 0.24,11.87 0.58,17.35 z"
           id="path47"
           style="fill:#ffffff" />
      </g>
      <g
         id="g107"
         transform="matrix(0.26458333,0,0,0.26458333,38.922249,69.81289)"
         style="fill:#ffffff"
         inkscape:export-filename="logo.svg"
         inkscape:export-xdpi="173.47"
         inkscape:export-ydpi="173.47">
        <path
           class="cls-1"
           d="m 201.35,41.16 c 0,-3.44 0,-5.62 -0.06,-7.91 -0.02,-0.66 -0.06,-1.37 -0.1,-2.09 H 203 c -0.04,0.7 -0.1,1.43 -0.1,2.09 0,2.46 -0.06,4.45 -0.06,7.45 0,3 1.73,4.31 4.43,4.31 2.5,0 4.13,-1.25 4.11,-4.15 -0.02,-2.68 -0.04,-5.4 -0.08,-7.87 -0.02,-0.66 -0.04,-1.25 -0.1,-1.83 h 1.75 c -0.04,0.48 -0.08,1.17 -0.08,1.83 0,2.82 -0.04,5.27 -0.04,8.09 0,3.52 -2.56,5.33 -5.76,5.33 -3.2,0 -5.72,-1.67 -5.72,-5.25 z"
           id="path51"
           style="fill:#ffffff" />
        <path
           class="cls-1"
           d="m 217.27,44.56 v -5.78 c 0,-0.77 -0.12,-1.41 -0.38,-2.15 l 1.71,-0.32 v 8.25 c 0,0.72 0.08,1.23 0.2,1.69 h -1.69 c 0.12,-0.46 0.16,-0.97 0.16,-1.69 z m 6.14,0 v -4.81 c 0,-1.47 -0.7,-2.15 -2.25,-2.15 -0.89,0 -1.79,0.2 -2.56,0.62 0.4,-1.39 1.49,-1.95 3.02,-1.95 2.03,0 3.12,1.17 3.12,3.06 v 5.23 c 0,0.72 0.06,1.23 0.16,1.69 h -1.63 c 0.08,-0.46 0.14,-0.97 0.14,-1.69 z"
           id="path53"
           style="fill:#ffffff" />
        <path
           class="cls-1"
           d="m 228.58,44.56 v -5.78 c 0,-0.77 -0.12,-1.41 -0.38,-2.15 l 1.71,-0.32 v 8.25 c 0,0.72 0.08,1.23 0.2,1.69 h -1.69 c 0.12,-0.46 0.16,-0.97 0.16,-1.69 z m -0.2,-10.99 v -1.39 c 0,-0.24 0.02,-0.26 0.2,-0.26 h 1.25 c 0.18,0 0.2,0.02 0.2,0.2 v 1.45 c 0,0.2 -0.02,0.22 -0.2,0.22 h -1.29 c -0.14,0 -0.16,-0.02 -0.16,-0.22 z"
           id="path55"
           style="fill:#ffffff" />
        <path
           class="cls-1"
           d="m 235.06,43.51 -2.62,-7.11 h 1.71 c 0.06,0.5 0.18,1.07 0.36,1.57 l 2.25,6.44 h 0.12 l 2.3,-6.44 c 0.18,-0.5 0.32,-1.07 0.38,-1.57 h 1.63 l -0.72,1.85 -2.07,5.25 c -0.36,0.93 -0.72,1.71 -0.89,2.74 h -1.65 c -0.12,-1.03 -0.46,-1.81 -0.81,-2.74 z"
           id="path57"
           style="fill:#ffffff" />
        <path
           class="cls-1"
           d="m 242.89,41.52 c 0,-3.16 1.75,-5.25 4.33,-5.25 2.32,0 3.66,1.51 3.66,4.33 0,0.22 0,0.46 -0.02,0.7 h -6.68 c -0.02,0.18 -0.02,0.32 -0.02,0.48 0,1.95 1.31,3.46 3.81,3.46 1.09,0 1.99,-0.28 2.74,-0.6 v 1.15 c -0.79,0.38 -1.81,0.62 -3.14,0.62 -2.94,0 -4.67,-1.83 -4.67,-4.89 z m 6.63,-1.25 c -0.06,-1.75 -0.89,-2.76 -2.46,-2.76 -1.57,0 -2.52,1.03 -2.76,2.76 h 5.21 z"
           id="path59"
           style="fill:#ffffff" />
        <path
           class="cls-1"
           d="m 253.92,44.56 v -5.78 c 0,-0.77 -0.12,-1.41 -0.38,-2.15 l 1.71,-0.32 v 8.25 c 0,0.72 0.1,1.23 0.18,1.69 h -1.67 c 0.1,-0.46 0.16,-0.97 0.16,-1.69 z m 3.64,-6.93 c -0.75,0 -1.57,0.18 -2.32,0.58 0.4,-1.39 1.49,-1.95 3.02,-1.95 0.28,0 0.52,0.02 0.77,0.06 l -0.08,1.49 c -0.38,-0.1 -0.89,-0.18 -1.39,-0.18 z"
           id="path61"
           style="fill:#ffffff" />
        <path
           class="cls-1"
           d="m 260.76,45.61 v -1.43 c 0.95,0.7 1.97,1.11 3.14,1.11 1.07,0 1.67,-0.5 1.67,-1.37 0,-0.95 -0.97,-1.33 -2.03,-1.77 -1.33,-0.54 -2.82,-1.15 -2.82,-2.98 0,-1.83 1.39,-2.9 3.16,-2.9 1.11,0 1.99,0.26 2.6,0.62 v 1.47 c -0.69,-0.44 -1.65,-0.79 -2.74,-0.79 -1.09,0 -1.83,0.46 -1.83,1.45 0,1.05 1.03,1.45 2.15,1.89 1.31,0.5 2.74,1.07 2.74,2.78 0,1.71 -1.19,2.72 -3.02,2.72 -1.25,0 -2.26,-0.34 -3.02,-0.81 z"
           id="path63"
           style="fill:#ffffff" />
        <path
           class="cls-1"
           d="m 270.24,44.56 v -5.78 c 0,-0.77 -0.12,-1.41 -0.38,-2.15 l 1.71,-0.32 v 8.25 c 0,0.72 0.08,1.23 0.2,1.69 h -1.69 c 0.12,-0.46 0.16,-0.97 0.16,-1.69 z m -0.2,-10.99 v -1.39 c 0,-0.24 0.02,-0.26 0.2,-0.26 h 1.25 c 0.18,0 0.2,0.02 0.2,0.2 v 1.45 c 0,0.2 -0.02,0.22 -0.2,0.22 h -1.29 c -0.14,0 -0.16,-0.02 -0.16,-0.22 z"
           id="path65"
           style="fill:#ffffff" />
        <path
           class="cls-1"
           d="m 274.75,41.44 c 0,-3.14 1.91,-5.17 4.59,-5.17 1.07,0 1.83,0.2 2.4,0.46 v -3.58 c 0,-0.93 -0.12,-1.51 -0.38,-2.28 l 1.75,-0.32 -0.12,11.52 c 0,0.81 -0.02,1.57 -0.02,2.38 0,0.56 0.24,0.85 0.83,0.85 0.3,0 0.56,-0.08 0.75,-0.14 v 0.95 c -0.22,0.18 -0.64,0.32 -1.23,0.32 -0.97,0 -1.57,-0.64 -1.57,-1.71 v -6.76 c -0.64,-0.24 -1.53,-0.42 -2.54,-0.42 -1.91,0 -3.18,1.47 -3.18,3.83 0,2.6 1.23,3.95 3.54,3.95 0.95,0 1.59,-0.2 2.17,-0.56 -0.22,0.95 -0.97,1.69 -2.66,1.69 -2.54,0 -4.33,-1.69 -4.33,-4.97 z"
           id="path67"
           style="fill:#ffffff" />
        <path
           class="cls-1"
           d="m 286.7,43.93 c 0,-1.63 1.07,-2.4 2.74,-2.62 l 2.48,-0.34 c 0.02,-0.5 0.04,-1.07 0.04,-1.63 0,-1.17 -0.62,-1.75 -1.97,-1.75 -1.07,0 -2.11,0.3 -3.02,0.89 v -1.47 c 0.83,-0.46 1.93,-0.75 3.14,-0.75 1.79,0 3.14,0.77 3.14,2.66 0,1.77 -0.2,3.89 -0.2,5.52 0,0.54 0.26,0.85 0.83,0.85 0.28,0 0.54,-0.04 0.77,-0.12 v 0.95 c -0.28,0.2 -0.69,0.3 -1.21,0.3 -0.89,0 -1.57,-0.54 -1.57,-1.69 0,-0.89 0.04,-1.81 0.06,-2.74 l -2.48,0.34 c -0.81,0.1 -1.43,0.56 -1.43,1.39 0,1.13 0.77,1.59 1.85,1.59 0.81,0 1.53,-0.28 1.99,-0.58 -0.22,1.15 -1.13,1.69 -2.58,1.69 -1.55,0 -2.58,-1.03 -2.58,-2.48 z"
           id="path69"
           style="fill:#ffffff" />
        <path
           class="cls-1"
           d="m 296.57,41.44 c 0,-3.14 1.91,-5.17 4.59,-5.17 1.07,0 1.83,0.2 2.4,0.46 v -3.58 c 0,-0.93 -0.12,-1.51 -0.38,-2.28 l 1.75,-0.32 -0.12,11.52 c 0,0.81 -0.02,1.57 -0.02,2.38 0,0.56 0.24,0.85 0.83,0.85 0.3,0 0.56,-0.08 0.75,-0.14 v 0.95 c -0.22,0.18 -0.64,0.32 -1.23,0.32 -0.97,0 -1.57,-0.64 -1.57,-1.71 v -6.76 c -0.64,-0.24 -1.53,-0.42 -2.54,-0.42 -1.91,0 -3.18,1.47 -3.18,3.83 0,2.6 1.23,3.95 3.54,3.95 0.95,0 1.59,-0.2 2.17,-0.56 -0.22,0.95 -0.97,1.69 -2.66,1.69 -2.54,0 -4.33,-1.69 -4.33,-4.97 z"
           id="path71"
           style="fill:#ffffff" />
        <path
           class="cls-1"
           d="m 316.59,33.67 h -0.08 c 0,3.3 -0.02,6.8 -0.02,10.11 0,0.66 0.08,1.85 0.14,2.48 h -1.75 c 0.06,-0.77 0.12,-1.71 0.16,-2.66 0.06,-1.75 0.06,-8.15 0.08,-9.12 0,-1.21 0.02,-2.34 0,-3.48 h 1.23 l 9.97,12.68 h 0.1 v -8.9 c 0,-1.47 -0.06,-2.88 -0.14,-3.62 h 1.81 c -0.06,0.64 -0.1,1.47 -0.12,2.4 -0.04,1.67 -0.1,7.05 -0.1,9.14 v 3.72 h -1.13 L 316.59,33.68 Z"
           id="path73"
           style="fill:#ffffff" />
        <path
           class="cls-1"
           d="m 331.95,43.93 c 0,-1.63 1.07,-2.4 2.74,-2.62 l 2.48,-0.34 c 0.02,-0.5 0.04,-1.07 0.04,-1.63 0,-1.17 -0.62,-1.75 -1.97,-1.75 -1.07,0 -2.11,0.3 -3.02,0.89 v -1.47 c 0.83,-0.46 1.93,-0.75 3.14,-0.75 1.79,0 3.14,0.77 3.14,2.66 0,1.77 -0.2,3.89 -0.2,5.52 0,0.54 0.26,0.85 0.83,0.85 0.28,0 0.54,-0.04 0.77,-0.12 v 0.95 c -0.28,0.2 -0.69,0.3 -1.21,0.3 -0.89,0 -1.57,-0.54 -1.57,-1.69 0,-0.89 0.04,-1.81 0.06,-2.74 l -2.48,0.34 c -0.81,0.1 -1.43,0.56 -1.43,1.39 0,1.13 0.77,1.59 1.85,1.59 0.81,0 1.53,-0.28 1.99,-0.58 -0.22,1.15 -1.13,1.69 -2.58,1.69 -1.55,0 -2.58,-1.03 -2.58,-2.48 z"
           id="path75"
           style="fill:#ffffff" />
        <path
           class="cls-1"
           d="m 341.81,41.48 c 0,-3.14 1.91,-5.21 4.63,-5.21 1.23,0 2.09,0.26 2.74,0.56 v 1.53 c -0.83,-0.42 -1.67,-0.77 -2.82,-0.77 -2.05,0 -3.26,1.51 -3.26,3.78 0,2.6 1.51,3.91 3.66,3.91 0.95,0 1.61,-0.18 2.36,-0.46 v 1.19 c -0.72,0.24 -1.55,0.4 -2.56,0.4 -2.74,0 -4.75,-1.77 -4.75,-4.93 z"
           id="path77"
           style="fill:#ffffff" />
        <path
           class="cls-1"
           d="m 351.69,44.56 v -5.78 c 0,-0.77 -0.12,-1.41 -0.38,-2.15 l 1.71,-0.32 v 8.25 c 0,0.72 0.08,1.23 0.2,1.69 h -1.69 c 0.12,-0.46 0.16,-0.97 0.16,-1.69 z m -0.2,-10.99 v -1.39 c 0,-0.24 0.02,-0.26 0.2,-0.26 h 1.25 c 0.18,0 0.2,0.02 0.2,0.2 v 1.45 c 0,0.2 -0.02,0.22 -0.2,0.22 h -1.29 c -0.14,0 -0.16,-0.02 -0.16,-0.22 z"
           id="path79"
           style="fill:#ffffff" />
        <path
           class="cls-1"
           d="m 356.2,41.36 c 0,-2.98 1.73,-5.09 4.45,-5.09 2.72,0 4.45,1.99 4.45,5.07 0,3.08 -1.65,5.07 -4.41,5.07 -2.76,0 -4.49,-2.05 -4.49,-5.05 z m 7.53,0.32 c 0,-2.44 -1.11,-4.15 -3.1,-4.15 -1.99,0 -3.06,1.51 -3.06,3.76 0,2.38 1.29,3.99 3.22,3.99 1.83,0 2.94,-1.39 2.94,-3.6 z"
           id="path81"
           style="fill:#ffffff" />
        <path
           class="cls-1"
           d="m 368.21,44.56 v -5.78 c 0,-0.77 -0.12,-1.41 -0.38,-2.15 l 1.71,-0.32 v 8.25 c 0,0.72 0.08,1.23 0.2,1.69 h -1.69 c 0.12,-0.46 0.16,-0.97 0.16,-1.69 z m 6.14,0 v -4.81 c 0,-1.47 -0.7,-2.15 -2.25,-2.15 -0.89,0 -1.79,0.2 -2.56,0.62 0.4,-1.39 1.49,-1.95 3.02,-1.95 2.03,0 3.12,1.17 3.12,3.06 v 5.23 c 0,0.72 0.06,1.23 0.16,1.69 h -1.63 c 0.08,-0.46 0.14,-0.97 0.14,-1.69 z"
           id="path83"
           style="fill:#ffffff" />
        <path
           class="cls-1"
           d="m 378.58,43.93 c 0,-1.63 1.07,-2.4 2.74,-2.62 l 2.48,-0.34 c 0.02,-0.5 0.04,-1.07 0.04,-1.63 0,-1.17 -0.62,-1.75 -1.97,-1.75 -1.07,0 -2.11,0.3 -3.02,0.89 v -1.47 c 0.83,-0.46 1.93,-0.75 3.14,-0.75 1.79,0 3.14,0.77 3.14,2.66 0,1.77 -0.2,3.89 -0.2,5.52 0,0.54 0.26,0.85 0.83,0.85 0.28,0 0.54,-0.04 0.77,-0.12 v 0.95 c -0.28,0.2 -0.69,0.3 -1.21,0.3 -0.89,0 -1.57,-0.54 -1.57,-1.69 0,-0.89 0.04,-1.81 0.06,-2.74 l -2.48,0.34 c -0.81,0.1 -1.43,0.56 -1.43,1.39 0,1.13 0.77,1.59 1.85,1.59 0.81,0 1.53,-0.28 1.99,-0.58 -0.22,1.15 -1.13,1.69 -2.58,1.69 -1.55,0 -2.58,-1.03 -2.58,-2.48 z"
           id="path85"
           style="fill:#ffffff" />
        <path
           class="cls-1"
           d="M 389.49,44.56 V 33.35 c 0,-0.93 -0.18,-1.53 -0.56,-2.28 l 1.93,-0.52 v 14.01 c 0,0.77 0.1,1.27 0.26,1.69 h -1.85 c 0.16,-0.42 0.22,-0.93 0.22,-1.69 z"
           id="path87"
           style="fill:#ffffff" />
        <path
           class="cls-1"
           d="m 398.77,41.44 c 0,-3.14 1.91,-5.17 4.59,-5.17 1.07,0 1.83,0.2 2.4,0.46 v -3.58 c 0,-0.93 -0.12,-1.51 -0.38,-2.28 l 1.75,-0.32 -0.12,11.52 c 0,0.81 -0.02,1.57 -0.02,2.38 0,0.56 0.24,0.85 0.83,0.85 0.3,0 0.56,-0.08 0.75,-0.14 v 0.95 c -0.22,0.18 -0.64,0.32 -1.23,0.32 -0.97,0 -1.57,-0.64 -1.57,-1.71 v -6.76 c -0.64,-0.24 -1.53,-0.42 -2.54,-0.42 -1.91,0 -3.18,1.47 -3.18,3.83 0,2.6 1.23,3.95 3.54,3.95 0.95,0 1.59,-0.2 2.17,-0.56 -0.22,0.95 -0.97,1.69 -2.66,1.69 -2.54,0 -4.33,-1.69 -4.33,-4.97 z"
           id="path89"
           style="fill:#ffffff" />
        <path
           class="cls-1"
           d="m 410.56,41.52 c 0,-3.16 1.75,-5.25 4.33,-5.25 2.32,0 3.66,1.51 3.66,4.33 0,0.22 0,0.46 -0.02,0.7 h -6.68 c -0.02,0.18 -0.02,0.32 -0.02,0.48 0,1.95 1.31,3.46 3.8,3.46 1.09,0 1.99,-0.28 2.74,-0.6 v 1.15 c -0.79,0.38 -1.81,0.62 -3.14,0.62 -2.94,0 -4.67,-1.83 -4.67,-4.89 z m 6.62,-1.25 c -0.06,-1.75 -0.89,-2.76 -2.46,-2.76 -1.57,0 -2.52,1.03 -2.76,2.76 h 5.21 z"
           id="path91"
           style="fill:#ffffff" />
        <path
           class="cls-1"
           d="m 426.04,38.84 c 0,-4.65 3.04,-7.91 7.67,-7.91 1.91,0 3.44,0.34 4.61,0.87 l 0.16,1.99 c -1.39,-0.99 -2.94,-1.47 -4.97,-1.47 -3.52,0 -5.92,2.52 -5.92,6.38 0,4.31 2.94,6.46 6.64,6.46 1.57,0 3.08,-0.42 4.11,-0.87 v 1.27 c -1.15,0.54 -2.82,0.85 -4.67,0.85 -4.37,0 -7.63,-2.72 -7.63,-7.57 z"
           id="path93"
           style="fill:#ffffff" />
        <path
           class="cls-1"
           d="m 439.68,41.36 c 0,-2.98 1.73,-5.09 4.45,-5.09 2.72,0 4.45,1.99 4.45,5.07 0,3.08 -1.65,5.07 -4.41,5.07 -2.76,0 -4.49,-2.05 -4.49,-5.05 z m 7.53,0.32 c 0,-2.44 -1.11,-4.15 -3.1,-4.15 -1.99,0 -3.06,1.51 -3.06,3.76 0,2.38 1.29,3.99 3.22,3.99 1.83,0 2.94,-1.39 2.94,-3.6 z m -2.27,-10.05 h 2.01 l -2.94,3.18 h -0.99 l 1.91,-3.18 z"
           id="path95"
           style="fill:#ffffff" />
        <path
           class="cls-1"
           d="m 451.69,44.56 v -5.78 c 0,-0.77 -0.12,-1.41 -0.38,-2.15 l 1.71,-0.32 v 8.25 c 0,0.72 0.1,1.23 0.18,1.69 h -1.67 c 0.1,-0.46 0.16,-0.97 0.16,-1.69 z m 3.65,-6.93 c -0.75,0 -1.57,0.18 -2.32,0.58 0.4,-1.39 1.49,-1.95 3.02,-1.95 0.28,0 0.52,0.02 0.77,0.06 l -0.08,1.49 c -0.38,-0.1 -0.89,-0.18 -1.39,-0.18 z"
           id="path97"
           style="fill:#ffffff" />
        <path
           class="cls-1"
           d="m 457.93,41.44 c 0,-3.14 1.91,-5.17 4.59,-5.17 1.07,0 1.83,0.2 2.4,0.46 v -3.58 c 0,-0.93 -0.12,-1.51 -0.38,-2.28 l 1.75,-0.32 -0.12,11.52 c 0,0.81 -0.02,1.57 -0.02,2.38 0,0.56 0.24,0.85 0.83,0.85 0.3,0 0.56,-0.08 0.75,-0.14 v 0.95 c -0.22,0.18 -0.64,0.32 -1.23,0.32 -0.97,0 -1.57,-0.64 -1.57,-1.71 v -6.76 c -0.64,-0.24 -1.53,-0.42 -2.54,-0.42 -1.91,0 -3.18,1.47 -3.18,3.83 0,2.6 1.23,3.95 3.54,3.95 0.95,0 1.59,-0.2 2.17,-0.56 -0.22,0.95 -0.97,1.69 -2.66,1.69 -2.54,0 -4.33,-1.69 -4.33,-4.97 z"
           id="path99"
           style="fill:#ffffff" />
        <path
           class="cls-1"
           d="m 469.73,41.36 c 0,-2.98 1.73,-5.09 4.45,-5.09 2.72,0 4.45,1.99 4.45,5.07 0,3.08 -1.65,5.07 -4.41,5.07 -2.76,0 -4.49,-2.05 -4.49,-5.05 z m 7.53,0.32 c 0,-2.44 -1.11,-4.15 -3.1,-4.15 -1.99,0 -3.06,1.51 -3.06,3.76 0,2.38 1.29,3.99 3.22,3.99 1.83,0 2.94,-1.39 2.94,-3.6 z"
           id="path101"
           style="fill:#ffffff" />
        <path
           class="cls-1"
           d="M 481.56,45.42 V 33.34 c 0,-0.93 -0.18,-1.53 -0.56,-2.28 l 1.93,-0.52 v 14.13 c 0.64,0.46 1.35,0.64 2.19,0.64 2.05,0 3.38,-1.47 3.38,-3.68 0,-2.52 -1.11,-4.01 -3.32,-4.01 -0.83,0 -1.67,0.24 -2.26,0.56 0.32,-1.31 1.57,-1.93 2.84,-1.93 2.74,0 4.13,2.01 4.13,5.07 0,2.88 -1.95,5.07 -4.81,5.07 -1.37,0 -2.46,-0.3 -3.52,-0.99 z"
           id="path103"
           style="fill:#ffffff" />
        <path
           class="cls-1"
           d="m 492.07,43.93 c 0,-1.63 1.07,-2.4 2.74,-2.62 l 2.48,-0.34 c 0.02,-0.5 0.04,-1.07 0.04,-1.63 0,-1.17 -0.62,-1.75 -1.97,-1.75 -1.07,0 -2.11,0.3 -3.02,0.89 v -1.47 c 0.83,-0.46 1.93,-0.75 3.14,-0.75 1.79,0 3.14,0.77 3.14,2.66 0,1.77 -0.2,3.89 -0.2,5.52 0,0.54 0.26,0.85 0.83,0.85 0.28,0 0.54,-0.04 0.77,-0.12 v 0.95 c -0.28,0.2 -0.69,0.3 -1.21,0.3 -0.89,0 -1.57,-0.54 -1.57,-1.69 0,-0.89 0.04,-1.81 0.06,-2.74 l -2.48,0.34 c -0.81,0.1 -1.43,0.56 -1.43,1.39 0,1.13 0.77,1.59 1.85,1.59 0.81,0 1.53,-0.28 1.99,-0.58 -0.22,1.15 -1.13,1.69 -2.58,1.69 -1.55,0 -2.58,-1.03 -2.58,-2.48 z"
           id="path105"
           style="fill:#ffffff" />
      </g>
    </g>
  </g>
</svg>
